<svg width="512" height="512" viewBox="0 0 512 512" fill="none" xmlns="http://www.w3.org/2000/svg">
  <defs>
    <linearGradient id="folia_gradient" x1="0" y1="0" x2="512" y2="512" gradientUnits="userSpaceOnUse">
      <stop offset="0" stop-color="#48828E"/>
      <stop offset="1" stop-color="#B6BAF3"/>
    </linearGradient>
    <filter id="dropShadow" x="-20%" y="-20%" width="140%" height="140%">
      <feGaussianBlur in="SourceAlpha" stdDeviation="10"/>
      <feOffset dx="4" dy="8" result="offsetblur"/>
      <feComponentTransfer>
        <feFuncA type="linear" slope="0.3"/>
      </feComponentTransfer>
      <feMerge>
        <feMergeNode/>
        <feMergeNode in="SourceGraphic"/>
      </feMerge>
    </filter>
  </defs>
  
  <!-- Background Container: Soft Rounded Square with Gradient -->
  <rect x="32" y="32" width="448" height="448" rx="120" fill="url(#folia_gradient)" />
  
  <!-- Stylized F Logo -->
  <g filter="url(#dropShadow)">
    <!-- Vertical Stem -->
    <path d="M160 128 C 160 110 175 110 190 110 H 220 C 235 110 250 125 250 140 V 372 C 250 388 235 402 220 402 H 190 C 175 402 160 388 160 372 V 128 Z" fill="white"/>
    
    <!-- Top Bar (Leaf Shape) -->
    <path d="M240 110 H 340 C 380 110 400 140 400 170 C 400 200 360 200 340 200 H 250 V 110 Z" fill="white"/>
    
    <!-- Middle Bar (Smaller Leaf Shape) -->
    <path d="M250 240 H 320 C 350 240 360 260 360 280 C 360 300 340 300 320 300 H 250 V 240 Z" fill="white"/>
  </g>
</svg>
